<svg width="16" height="13" viewBox="0 0 16 13" fill="none" xmlns="http://www.w3.org/2000/svg">
<path d="M7.75517 12.625C7.90517 12.475 7.98371 12.2841 7.9908 12.0523C7.99735 11.8205 7.92562 11.6296 7.77562 11.4796L3.76653 7.4705H14.5461C14.7779 7.4705 14.9723 7.39195 15.1294 7.23486C15.286 7.07832 15.3643 6.88414 15.3643 6.65232C15.3643 6.4205 15.286 6.22604 15.1294 6.06895C14.9723 5.91241 14.7779 5.83414 14.5461 5.83414H3.76653L7.77562 1.82504C7.92562 1.67504 7.99735 1.48414 7.9908 1.25232C7.98371 1.0205 7.90517 0.82959 7.75517 0.67959C7.60517 0.52959 7.41426 0.45459 7.18244 0.45459C6.95062 0.45459 6.75971 0.52959 6.60971 0.67959L1.20971 6.07959C1.12789 6.14777 1.0698 6.23286 1.03544 6.33486C1.00162 6.43741 0.984712 6.54323 0.984712 6.65232C0.984712 6.76141 1.00162 6.86368 1.03544 6.95914C1.0698 7.05459 1.12789 7.14323 1.20971 7.22504L6.60971 12.625C6.75971 12.775 6.95062 12.85 7.18244 12.85C7.41426 12.85 7.60517 12.775 7.75517 12.625Z" fill="#474A54"/>
</svg>
