<svg width="14" height="13" viewBox="0 0 14 13" fill="none" xmlns="http://www.w3.org/2000/svg">
<path d="M7.00444 0C3.13777 0 0 2.90166 0 5.40763C0 7.15742 1.39555 8.74014 3.25333 9.68977C2.99555 10.4987 2.48 11.6242 1.45778 12.6354C1.32444 12.7673 1.31555 12.8288 1.35111 12.908C1.42222 13.0575 1.59111 12.9959 1.89333 12.9256C3.50222 12.5475 5.34222 11.2637 6.2311 10.5866C6.48888 10.613 6.74666 10.6306 6.99555 10.6306C10.4533 10.6306 14 8.10705 14 5.40763C14.0089 2.95441 10.88 0 7.00444 0ZM4.11555 7.03432C3.36888 7.03432 2.77333 6.4364 2.77333 5.70659C2.77333 4.97678 3.37777 4.37886 4.11555 4.37886C4.85333 4.37886 5.45777 4.97678 5.45777 5.70659C5.44888 6.4364 4.85333 7.03432 4.11555 7.03432ZM7.16444 7.03432C6.42666 7.03432 5.82221 6.4364 5.82221 5.70659C5.82221 4.97678 6.42666 4.37886 7.16444 4.37886C7.90221 4.37886 8.50666 4.97678 8.50666 5.70659C8.49777 6.4364 7.90221 7.03432 7.16444 7.03432ZM10.1422 7.03432C9.40443 7.03432 8.79999 6.4364 8.79999 5.70659C8.79999 4.97678 9.40443 4.37886 10.1422 4.37886C10.88 4.37886 11.4844 4.97678 11.4844 5.70659C11.4844 6.4364 10.88 7.03432 10.1422 7.03432Z" fill="white"/>
</svg>
