<svg width="11" height="11" viewBox="0 0 11 11" fill="none" xmlns="http://www.w3.org/2000/svg">
<path d="M8.0006 5.50332L10.8648 2.64089C11.0333 2.46365 11.0333 2.18892 10.8648 2.01168L8.98489 0.132931C8.81641 -0.0443102 8.53265 -0.0443102 8.3553 0.132931L5.5 2.99537L2.62696 0.132931C2.45848 -0.0443102 2.17473 -0.0443102 1.99738 0.132931L0.12636 2.01168C-0.0421201 2.18006 -0.0421201 2.46365 0.12636 2.64089L2.99053 5.50332L0.12636 8.36576C-0.0421201 8.53414 -0.0421201 8.81772 0.12636 8.99496L2.00625 10.8737C2.17473 11.0421 2.45848 11.0421 2.63583 10.8737L5.5 8.01128L8.36417 10.8737C8.53265 11.0421 8.8164 11.0421 8.99375 10.8737L10.8736 8.99496C11.0421 8.81772 11.0421 8.543 10.8736 8.36576L8.0006 5.50332Z" fill="#E5218F"/>
</svg>
