<svg width="60" height="54" viewBox="0 0 60 54" fill="none" xmlns="http://www.w3.org/2000/svg">
<path d="M58.7075 9.03676C57.4559 6.0646 55.3563 3.76406 52.8889 2.26044C50.4163 0.75181 47.576 0 44.6999 0C41.2414 0 37.7062 1.08762 34.6769 3.35808C33.0626 4.57602 31.6117 6.14479 30.4163 8.02933C29.1648 6.18489 27.6577 4.64619 25.9872 3.46835C22.8506 1.24299 19.2082 0.175422 15.6475 0.175422C11.7497 0.175422 7.89786 1.44849 4.92468 4.09486C3.4432 5.41303 2.19161 7.07704 1.32826 9.0568C0.470027 11.0165 -0.00506778 13.277 4.07743e-05 15.7229C4.07743e-05 18.1387 0.516004 20.5194 1.3487 22.8199C2.81485 26.8446 5.26696 30.6889 8.08177 34.2725C12.3065 39.6404 17.3844 44.4069 21.4253 47.8753C25.4611 51.3336 28.4649 53.4787 28.5109 53.5188C29.41 54.1604 30.59 54.1604 31.4943 53.5188C31.5607 53.4637 38.493 48.5168 45.507 41.4598C49.0166 37.9213 52.5568 33.8615 55.2848 29.5361C56.6488 27.3659 57.8135 25.1305 58.6513 22.8199C59.484 20.5144 60 18.1387 60 15.7229C60.0051 13.272 59.5504 11.0115 58.7075 9.03676Z" fill="#F6A9D4"/>
</svg>
