<svg width="23" height="21" viewBox="0 0 23 21" fill="none" xmlns="http://www.w3.org/2000/svg">
<path d="M20.5907 4.8449C20.1944 3.90923 19.5295 3.18498 18.7481 2.71162C17.9652 2.23668 17.0657 2 16.155 2C15.0598 2 13.9403 2.3424 12.981 3.05717C12.4698 3.4406 12.0104 3.93447 11.6318 4.52775C11.2355 3.94709 10.7583 3.46269 10.2293 3.09189C9.23602 2.39131 8.08259 2.05523 6.95505 2.05523C5.72074 2.05523 4.50099 2.45601 3.55948 3.28912C3.09035 3.7041 2.69401 4.22796 2.42062 4.85122C2.14884 5.46816 1.9984 6.17978 2.00001 6.94979C2.00001 7.71032 2.1634 8.45981 2.42709 9.18405C2.89137 10.4511 3.66787 11.6613 4.55923 12.7895C5.89707 14.4794 7.50507 15.98 8.78468 17.0718C10.0627 18.1606 11.0139 18.8359 11.0284 18.8485C11.3132 19.0505 11.6868 19.0505 11.9732 18.8485C11.9942 18.8312 14.1894 17.2738 16.4106 15.0522C17.5219 13.9382 18.643 12.6601 19.5068 11.2984C19.9388 10.6152 20.3076 9.91145 20.5729 9.18405C20.8366 8.45823 21 7.71032 21 6.94979C21.0016 6.17821 20.8576 5.46659 20.5907 4.8449Z" stroke="#E5218F" stroke-width="3" stroke-linejoin="round"/>
</svg>
