<svg width="48" height="44" viewBox="0 0 48 44" fill="none" xmlns="http://www.w3.org/2000/svg">
<path d="M46.966 7.36328C45.9647 4.94153 44.285 3.06701 42.3111 1.84184C40.3331 0.612586 38.0608 0 35.7599 0C32.9931 0 30.165 0.886207 27.7415 2.73622C26.4501 3.72861 25.2894 5.00687 24.3331 6.54242C23.3318 5.03954 22.1262 3.78578 20.7898 2.82606C18.2805 1.01281 15.3666 0.142937 12.518 0.142937C9.39976 0.142937 6.31829 1.18025 3.93975 3.33655C2.75456 4.41062 1.75329 5.76647 1.06261 7.37962C0.376022 8.97643 -0.00405422 10.8183 3.26195e-05 12.8112C3.26195e-05 14.7797 0.412804 16.7195 1.07896 18.594C2.25188 21.8734 4.21356 25.0058 6.46541 27.9257C9.84523 32.2996 13.9075 36.1834 17.1402 39.0095C20.3688 41.8274 22.7719 43.5753 22.8087 43.6079C23.528 44.1307 24.472 44.1307 25.1954 43.6079C25.2485 43.563 30.7944 39.5322 36.4056 33.7821C39.2133 30.8988 42.0454 27.5909 44.2278 24.0665C45.319 22.2981 46.2508 20.4767 46.921 18.594C47.5872 16.7154 48 14.7797 48 12.8112C48.0041 10.8142 47.6403 8.97234 46.966 7.36328Z" fill="#E5218F"/>
</svg>
