<svg width="14" height="14" viewBox="0 0 14 14" fill="none" xmlns="http://www.w3.org/2000/svg">
<path d="M13.8967 12.2009C12.996 10.648 11.5978 9.44435 9.92815 8.78468C10.7476 8.1701 11.3529 7.31327 11.6583 6.33555C11.9637 5.35784 11.9538 4.30881 11.6299 3.33707C11.3059 2.36533 10.6845 1.52013 9.85353 0.92121C9.02257 0.322287 8.02423 0 6.99992 0C5.97562 0 4.97728 0.322287 4.14631 0.92121C3.31535 1.52013 2.6939 2.36533 2.36999 3.33707C2.04607 4.30881 2.03612 5.35784 2.34153 6.33555C2.64695 7.31327 3.25225 8.1701 4.07169 8.78468C2.40207 9.44435 1.00383 10.648 0.103175 12.2009C0.000988731 12.3781 -0.0266505 12.5885 0.0263376 12.786C0.0793257 12.9835 0.208601 13.1519 0.385723 13.2541C0.562846 13.3563 0.773307 13.3839 0.970808 13.3309C1.16831 13.2779 1.33667 13.1487 1.43886 12.9715C2.00249 11.9954 2.81312 11.1848 3.78929 10.6213C4.76545 10.0577 5.87276 9.76104 6.99992 9.76104C8.12709 9.76104 9.23439 10.0577 10.2106 10.6213C11.1867 11.1848 11.9974 11.9954 12.561 12.9715C12.6292 13.0883 12.7266 13.1853 12.8437 13.2529C12.9609 13.3204 13.0936 13.3563 13.2288 13.3568C13.3642 13.3579 13.4973 13.3224 13.6141 13.2541C13.7019 13.2035 13.7788 13.1362 13.8405 13.0559C13.9022 12.9756 13.9474 12.8839 13.9737 12.7861C13.9999 12.6883 14.0066 12.5863 13.9934 12.4859C13.9802 12.3854 13.9473 12.2886 13.8967 12.2009ZM3.66072 4.88038C3.66072 4.21995 3.85656 3.57435 4.22347 3.02522C4.59039 2.47609 5.1119 2.04809 5.72206 1.79535C6.33222 1.54262 7.00363 1.47649 7.65137 1.60533C8.29911 1.73418 8.8941 2.05221 9.3611 2.5192C9.8281 2.9862 10.1461 3.58119 10.275 4.22893C10.4038 4.87668 10.3377 5.54808 10.0849 6.15824C9.83221 6.7684 9.40422 7.28991 8.85509 7.65683C8.30596 8.02375 7.66036 8.21959 6.99992 8.21959C6.11431 8.21959 5.26497 7.86778 4.63875 7.24156C4.01252 6.61533 3.66072 5.76599 3.66072 4.88038Z" fill="#474A54"/>
</svg>
