<svg width="166" height="46" viewBox="0 0 166 46" fill="none" xmlns="http://www.w3.org/2000/svg">
<path d="M0 45.3878V0.612168V0.612168C5.12552 0.612168 9.28057 4.76722 9.28057 9.89274V37.5827H20.2938C24.6044 37.5827 28.0989 41.0772 28.0989 45.3878V45.3878H0Z" fill="#E5218F"/>
<path d="M72.8728 23C72.8728 27.8828 71.9655 32.0368 70.1508 35.462C68.3504 38.8872 65.8927 41.5035 62.7778 43.3108C59.6771 45.1036 56.1907 46 52.3184 46C48.4176 46 44.9168 45.0963 41.8161 43.289C38.7155 41.4816 36.2649 38.8653 34.4646 35.4401C32.6642 32.0149 31.764 27.8682 31.764 23C31.764 18.1172 32.6642 13.9632 34.4646 10.538C36.2649 7.1128 38.7155 4.5038 41.8161 2.71103C44.9168 0.903676 48.4176 0 52.3184 0C56.1907 0 59.6771 0.903676 62.7778 2.71103C65.8927 4.5038 68.3504 7.1128 70.1508 10.538C71.9655 13.9632 72.8728 18.1172 72.8728 23ZM63.4637 23C63.4637 19.8371 62.9993 17.1698 62.0705 14.9981C61.156 12.8264 59.8629 11.1793 58.1911 10.057C56.5193 8.93473 54.5617 8.37358 52.3184 8.37358C50.0751 8.37358 48.1175 8.93473 46.4457 10.057C44.7739 11.1793 43.4736 12.8264 42.5449 14.9981C41.6304 17.1698 41.1731 19.8371 41.1731 23C41.1731 26.1629 41.6304 28.8302 42.5449 31.0019C43.4736 33.1736 44.7739 34.8207 46.4457 35.943C48.1175 37.0653 50.0751 37.6264 52.3184 37.6264C54.5617 37.6264 56.5193 37.0653 58.1911 35.943C59.8629 34.8207 61.156 33.1736 62.0705 31.0019C62.9993 28.8302 63.4637 26.1629 63.4637 23Z" fill="#E5218F"/>
<path d="M108.854 15.0856C108.554 14.0215 108.132 13.0814 107.589 12.2652C107.046 11.4344 106.382 10.7348 105.596 10.1664C104.824 9.58333 103.938 9.13878 102.938 8.8327C101.952 8.52662 100.859 8.37358 99.6589 8.37358C97.4156 8.37358 95.4438 8.94202 93.7434 10.0789C92.0573 11.2158 90.7427 12.8701 89.7997 15.0418C88.8566 17.199 88.3851 19.8371 88.3851 22.9563C88.3851 26.0754 88.8495 28.7281 89.7782 30.9145C90.707 33.1008 92.0216 34.7696 93.722 35.9211C95.4223 37.058 97.4299 37.6264 99.7447 37.6264C101.845 37.6264 103.638 37.2475 105.124 36.4895C106.625 35.717 107.768 34.6312 108.554 33.2319C109.354 31.8327 109.754 30.1784 109.754 28.269L111.64 28.5532H100.323V28.5532C100.323 24.6169 103.514 21.4259 107.451 21.4259H118.692V27.0665C118.692 31.0019 117.877 34.3834 116.248 37.211C114.619 40.0241 112.376 42.1958 109.518 43.7262C106.66 45.2421 103.388 46 99.7018 46C95.5866 46 91.9716 45.0745 88.8566 43.2234C85.7417 41.3577 83.3126 38.7123 81.5693 35.2871C79.8404 31.8473 78.9759 27.7662 78.9759 23.0437C78.9759 19.4145 79.4903 16.1787 80.5191 13.3365C81.5622 10.4797 83.0197 8.0602 84.8915 6.07795C86.7633 4.09569 88.9423 2.58714 91.4286 1.55228C93.9148 0.517427 96.6083 0 99.5089 0C101.995 0 104.31 0.371673 106.453 1.11502C108.597 1.84379 110.497 2.87864 112.154 4.21958C113.826 5.56052 115.191 7.15653 116.248 9.0076V9.0076C117.951 11.9656 115.247 15.0856 111.834 15.0856H108.854Z" fill="#E5218F"/>
<path d="M166 23C166 27.8828 165.093 32.0368 163.278 35.462C161.478 38.8872 159.02 41.5035 155.905 43.3108C152.804 45.1036 149.318 46 145.446 46C141.545 46 138.044 45.0963 134.943 43.289C131.843 41.4816 129.392 38.8653 127.592 35.4401C125.791 32.0149 124.891 27.8682 124.891 23C124.891 18.1172 125.791 13.9632 127.592 10.538C129.392 7.1128 131.843 4.5038 134.943 2.71103C138.044 0.903676 141.545 0 145.446 0C149.318 0 152.804 0.903676 155.905 2.71103C159.02 4.5038 161.478 7.1128 163.278 10.538C165.093 13.9632 166 18.1172 166 23ZM156.591 23C156.591 19.8371 156.126 17.1698 155.198 14.9981C154.283 12.8264 152.99 11.1793 151.318 10.057C149.646 8.93473 147.689 8.37358 145.446 8.37358C143.202 8.37358 141.245 8.93473 139.573 10.057C137.901 11.1793 136.601 12.8264 135.672 14.9981C134.758 17.1698 134.3 19.8371 134.3 23C134.3 26.1629 134.758 28.8302 135.672 31.0019C136.601 33.1736 137.901 34.8207 139.573 35.943C141.245 37.0653 143.202 37.6264 145.446 37.6264C147.689 37.6264 149.646 37.0653 151.318 35.943C152.99 34.8207 154.283 33.1736 155.198 31.0019C156.126 28.8302 156.591 26.1629 156.591 23Z" fill="#E5218F"/>
</svg>
